<svg xmlns="http://www.w3.org/2000/svg" viewBox="0 0 500 500"><defs><style>.cls-1{fill:#ef6363;}.cls-2{fill:#13b0a5;}.cls-3{fill:#f1b136;}</style></defs><title>Trema_Logo</title><g id="Layer_2" data-name="Layer 2"><polygon class="cls-1" points="158.57 200.91 158.57 91.26 89.95 130.88 130.39 200.91 158.57 200.91"/><polygon class="cls-2" points="79.85 136.71 64.37 145.65 64.37 200.91 116.91 200.91 79.85 136.71"/><polygon class="cls-3" points="229.01 131.69 229.01 50.59 170.24 84.53 170.24 119.24 229.01 131.69"/><polygon class="cls-3" points="116.66 356.9 116.66 404.09 151.48 424.19 209.29 407.73 185.7 371.53 116.66 356.9"/><polygon class="cls-1" points="170.24 212.57 170.24 279.79 282.95 212.57 170.24 212.57"/><polygon class="cls-3" points="298.09 158.25 271.45 152.61 194.88 200.91 302.51 200.91 309.03 197.02 298.09 158.25"/><polygon class="cls-2" points="138.32 298.83 158.57 286.75 158.57 265.13 64.37 291.95 64.37 333.9 176.68 357.69 138.32 298.83"/><polygon class="cls-1" points="262.03 31.53 240.68 43.86 240.68 134.16 294.5 145.57 262.45 32.05 262.03 31.53"/><polygon class="cls-1" points="213.38 415.45 259.79 488.63 160.43 430.62 213.38 415.45"/><polygon class="cls-1" points="64.37 345.82 64.37 373.9 104.99 397.35 104.99 354.43 64.37 345.82"/><polygon class="cls-3" points="158.57 212.57 64.37 212.57 64.37 279.82 158.57 252.99 158.57 212.57"/><polygon class="cls-2" points="255.08 149.14 170.24 131.17 170.24 200.91 173.01 200.91 255.08 149.14"/><polygon class="cls-3" points="353.2 196.8 452.45 196.8 452.48 152.13 262.75 31.24 353.2 196.8"/><polygon class="cls-2" points="187.95 315.05 452.45 315.05 452.45 217.03 353.2 217.03 187.95 315.05"/><polygon class="cls-1" points="199.99 335.35 259.79 488.63 452.45 367.7 452.56 335.35 199.99 335.35"/></g></svg>