<svg xmlns="http://www.w3.org/2000/svg" viewBox="0 0 217.99 256.85"><defs><style>.cls-1{fill:#917ca0;}.cls-2{fill:#13b0a5;}.cls-3{fill:#f1b136;}</style></defs><title>Tremalogo</title><g id="Layer_2" data-name="Layer 2"><g id="Group_727" data-name="Group 727"><path id="Path_880" data-name="Path 880" class="cls-1" d="M52.9,95.27V33.7L14.37,56l22.7,39.32Z"/><path id="Path_881" data-name="Path 881" class="cls-2" d="M8.7,59.23l-8.7,5v31H29.51Z"/><path id="Path_882" data-name="Path 882" class="cls-3" d="M92.46,56.41V10.87l-33,19.05V49.41Z"/><path id="Path_883" data-name="Path 883" class="cls-3" d="M29.37,182.88v26.5l19.55,11.28,32.46-9.25L68.14,191.09Z"/><path id="Path_884" data-name="Path 884" class="cls-1" d="M59.45,101.83v37.75l63.3-37.75Z"/><path id="Path_885" data-name="Path 885" class="cls-3" d="M131.25,71.32l-15-3.17-43,27.12h60.44l3.66-2.18Z"/><path id="Path_886" data-name="Path 886" class="cls-2" d="M41.53,150.26l11.37-6.78V131.34L0,146.4V170l63.07,13.36Z"/><path id="Path_887" data-name="Path 887" class="cls-1" d="M111,.16,99,7.08V57.8l30.23,6.4L111.24.45Z"/><path id="Path_888" data-name="Path 888" class="cls-1" d="M83.68,215.75l26.06,41.1-55.8-32.57Z"/><path id="Path_889" data-name="Path 889" class="cls-1" d="M0,176.65v15.77l22.81,13.17v-24.1Z"/><path id="Path_890" data-name="Path 890" class="cls-3" d="M52.9,101.83H0v37.76l52.9-15.06Z"/><path id="Path_891" data-name="Path 891" class="cls-2" d="M107.09,66.21,59.45,56.11V95.28H61Z"/><path id="Path_892" data-name="Path 892" class="cls-3" d="M162.2,93h55.73l0-25.08L111.4,0Z"/><path id="Path_893" data-name="Path 893" class="cls-2" d="M69.4,159.37H217.93v-55H162.2Z"/><path id="Path_894" data-name="Path 894" class="cls-1" d="M76.16,170.77l33.58,86.08,108.19-67.91.06-18.17Z"/></g></g></svg>