<svg xmlns="http://www.w3.org/2000/svg" viewBox="0 0 1280 800"><defs><style>.cls-1,.cls-2,.cls-3{fill:none;stroke-miterlimit:10;stroke-width:2px;}.cls-1{stroke:#ef6363;}.cls-2{stroke:#f1b136;}.cls-3{stroke:#13b0a5;}</style></defs><title>Trema</title><g id="Layer_2" data-name="Layer 2"><g id="Group_645" data-name="Group 645"><path id="Path_179" data-name="Path 179" class="cls-1" d="M31.33,233.42V120.85l-70.45,40.67,41.51,71.9Z"/><path id="Path_181" data-name="Path 181" class="cls-2" d="M103.65,162.36V79.11L43.3,114v35.62Z"/><path id="Path_182" data-name="Path 182" class="cls-2" d="M-11.7,393.57V442l35.75,20.64,59.35-16.9L59.17,408.59Z"/><path id="Path_183" data-name="Path 183" class="cls-1" d="M43.31,245.39v69l115.71-69Z"/><path id="Path_184" data-name="Path 184" class="cls-2" d="M174.56,189.63l-27.35-5.8L68.6,233.42H179.1l6.7-4Z"/><path id="Path_185" data-name="Path 185" class="cls-3" d="M10.54,334l20.79-12.4v-22.2l-96.71,27.53V370l115.3,24.43Z"/><path id="Path_186" data-name="Path 186" class="cls-1" d="M137.55,59.52,115.63,72.18V164.9l55.26,11.71L138,60.05Z"/><path id="Path_187" data-name="Path 187" class="cls-1" d="M87.6,453.68l47.65,75.13-102-59.56Z"/><path id="Path_189" data-name="Path 189" class="cls-2" d="M31.33,245.39H-65.38v69l96.71-27.54Z"/><path id="Path_190" data-name="Path 190" class="cls-3" d="M130.41,180.28l-87.1-18.46v71.6h2.84Z"/><path id="Path_191" data-name="Path 191" class="cls-1" d="M247.41,357.24V469.81l70.44-40.67-41.51-71.9Z"/><path id="Path_192" data-name="Path 192" class="cls-3" d="M328.23,423.15,344.12,414V357.24H290.17Z"/><path id="Path_193" data-name="Path 193" class="cls-2" d="M175.09,428.3v83.26l60.34-34.84V441.09Z"/><path id="Path_194" data-name="Path 194" class="cls-2" d="M290.43,197.09V148.65L254.68,128l-59.35,16.9,24.23,37.17Z"/><path id="Path_195" data-name="Path 195" class="cls-1" d="M235.43,345.26v-69l-115.72,69Z"/><path id="Path_196" data-name="Path 196" class="cls-2" d="M104.17,401l27.35,5.8,78.61-49.58H99.63l-6.7,4Z"/><path id="Path_197" data-name="Path 197" class="cls-3" d="M268.19,256.71l-20.78,12.4v22.2l96.71-27.53V220.71L228.81,196.28Z"/><path id="Path_198" data-name="Path 198" class="cls-1" d="M141.18,531.14l21.93-12.66V425.76l-55.26-11.71L140.76,530.6Z"/><path id="Path_199" data-name="Path 199" class="cls-1" d="M191.13,137,143.49,61.85l102,59.56Z"/><path id="Path_200" data-name="Path 200" class="cls-1" d="M344.12,208.46V179.64L302.4,155.56v44.06Z"/><path id="Path_201" data-name="Path 201" class="cls-2" d="M247.41,345.26h96.71v-69l-96.71,27.54Z"/><path id="Path_202" data-name="Path 202" class="cls-3" d="M148.33,410.39l87.1,18.46V357.24h-2.85Z"/><path id="Path_179-2" data-name="Path 179-2" class="cls-1" d="M454,233.42V120.85l-70.45,40.67,41.51,71.9Z"/><path id="Path_180-2" data-name="Path 180-2" class="cls-3" d="M373.21,167.51l-15.9,9.18v56.72h53.94Z"/><path id="Path_181-2" data-name="Path 181-2" class="cls-2" d="M526.34,162.36V79.11L466,114v35.62Z"/><path id="Path_182-2" data-name="Path 182-2" class="cls-2" d="M411,393.57V442l35.75,20.64,59.35-16.9-24.23-37.16Z"/><path id="Path_183-2" data-name="Path 183-2" class="cls-1" d="M466,245.39v69l115.71-69Z"/><path id="Path_184-2" data-name="Path 184-2" class="cls-2" d="M597.25,189.63l-27.35-5.8-78.61,49.59h110.5l6.7-4Z"/><path id="Path_185-2" data-name="Path 185-2" class="cls-3" d="M433.23,334,454,321.55v-22.2l-96.71,27.53V370l115.3,24.43Z"/><path id="Path_186-2" data-name="Path 186-2" class="cls-1" d="M560.24,59.52,538.32,72.18V164.9l55.26,11.71L560.66,60.05Z"/><path id="Path_187-2" data-name="Path 187-2" class="cls-1" d="M510.29,453.68l47.65,75.13-102-59.56Z"/><path id="Path_188-2" data-name="Path 188-2" class="cls-1" d="M357.31,382.2V411L399,435.1V391Z"/><path id="Path_189-2" data-name="Path 189-2" class="cls-2" d="M454,245.39H357.31v69L454,286.89Z"/><path id="Path_190-2" data-name="Path 190-2" class="cls-3" d="M553.1,180.28,466,161.82v71.6h2.84Z"/><path id="Path_191-2" data-name="Path 191-2" class="cls-1" d="M670.1,357.24V469.81l70.44-40.67L699,357.24Z"/><path id="Path_192-2" data-name="Path 192-2" class="cls-3" d="M750.91,423.15l15.9-9.18V357.24H712.86Z"/><path id="Path_193-2" data-name="Path 193-2" class="cls-2" d="M597.77,428.3v83.26l60.35-34.84V441.09Z"/><path id="Path_194-2" data-name="Path 194-2" class="cls-2" d="M713.12,197.09V148.65L677.36,128,618,144.9l24.23,37.17Z"/><path id="Path_195-2" data-name="Path 195-2" class="cls-1" d="M658.12,345.26v-69l-115.72,69Z"/><path id="Path_196-2" data-name="Path 196-2" class="cls-2" d="M526.86,401l27.35,5.8,78.61-49.58H522.32l-6.7,4Z"/><path id="Path_197-2" data-name="Path 197-2" class="cls-3" d="M690.88,256.71l-20.78,12.4v22.2l96.71-27.53V220.71L651.5,196.28Z"/><path id="Path_198-2" data-name="Path 198-2" class="cls-1" d="M563.87,531.14l21.93-12.66V425.76l-55.26-11.71L563.45,530.6Z"/><path id="Path_199-2" data-name="Path 199-2" class="cls-1" d="M613.82,137,566.18,61.85l102,59.56Z"/><path id="Path_200-2" data-name="Path 200-2" class="cls-1" d="M766.81,208.46V179.64l-41.72-24.08v44.06Z"/><path id="Path_201-2" data-name="Path 201-2" class="cls-2" d="M670.1,345.26h96.71v-69L670.1,303.77Z"/><path id="Path_202-2" data-name="Path 202-2" class="cls-3" d="M571,410.39l87.1,18.46V357.24h-2.84Z"/><path id="Path_179-3" data-name="Path 179-3" class="cls-1" d="M876.7,233.42V120.85l-70.44,40.67,41.51,71.9Z"/><path id="Path_180-3" data-name="Path 180-3" class="cls-3" d="M795.89,167.51,780,176.69v56.72h54Z"/><path id="Path_181-3" data-name="Path 181-3" class="cls-2" d="M949,162.36V79.11L888.68,114v35.62Z"/><path id="Path_182-3" data-name="Path 182-3" class="cls-2" d="M833.68,393.57V442l35.75,20.64,59.35-16.9-24.23-37.16Z"/><path id="Path_183-3" data-name="Path 183-3" class="cls-1" d="M888.68,245.39v69l115.72-69Z"/><path id="Path_184-3" data-name="Path 184-3" class="cls-2" d="M1019.94,189.63l-27.35-5.8L914,233.42h110.5l6.7-4Z"/><path id="Path_185-3" data-name="Path 185-3" class="cls-3" d="M855.92,334l20.78-12.4v-22.2L780,326.88V370L895.3,394.38Z"/><path id="Path_186-3" data-name="Path 186-3" class="cls-1" d="M982.93,59.52,961,72.18V164.9l55.25,11.7L983.35,60.05Z"/><path id="Path_187-3" data-name="Path 187-3" class="cls-1" d="M933,453.68l47.64,75.13-102-59.56Z"/><path id="Path_188-3" data-name="Path 188-3" class="cls-1" d="M780,382.2V411L821.7,435.1V391Z"/><path id="Path_189-3" data-name="Path 189-3" class="cls-2" d="M876.71,245.39H780v69l96.71-27.54Z"/><path id="Path_190-3" data-name="Path 190-3" class="cls-3" d="M975.79,180.28l-87.1-18.46v71.6h2.84Z"/><path id="Path_191-3" data-name="Path 191-3" class="cls-1" d="M1092.79,357.24V469.81l70.44-40.67-41.51-71.9Z"/><path id="Path_192-3" data-name="Path 192-3" class="cls-3" d="M1173.6,423.15l15.9-9.18V357.24h-54Z"/><path id="Path_193-3" data-name="Path 193-3" class="cls-2" d="M1020.46,428.3v83.26l60.34-34.84V441.09Z"/><path id="Path_194-3" data-name="Path 194-3" class="cls-2" d="M1135.81,197.09V148.65L1100.06,128l-59.35,16.9,24.23,37.16Z"/><path id="Path_195-3" data-name="Path 195-3" class="cls-1" d="M1080.81,345.26v-69l-115.72,69Z"/><path id="Path_196-3" data-name="Path 196-3" class="cls-2" d="M949.55,401l27.35,5.8,78.61-49.58H945l-6.7,4Z"/><path id="Path_197-3" data-name="Path 197-3" class="cls-3" d="M1113.57,256.71l-20.78,12.4v22.2l96.71-27.53V220.71l-115.31-24.43Z"/><path id="Path_198-3" data-name="Path 198-3" class="cls-1" d="M986.56,531.14l21.92-12.66V425.76l-55.25-11.71L986.14,530.6Z"/><path id="Path_199-3" data-name="Path 199-3" class="cls-1" d="M1036.51,137,988.86,61.85l102,59.56Z"/><path id="Path_200-3" data-name="Path 200-3" class="cls-1" d="M1189.5,208.46V179.64l-41.72-24.08v44.06Z"/><path id="Path_201-3" data-name="Path 201-3" class="cls-2" d="M1092.79,345.26h96.71v-69l-96.71,27.54Z"/><path id="Path_202-3" data-name="Path 202-3" class="cls-3" d="M993.7,410.39l87.1,18.46V357.24H1078Z"/><path id="Path_179-4" data-name="Path 179-4" class="cls-1" d="M246,598.31V485.75l-70.44,40.67L217,598.31Z"/><path id="Path_180-4" data-name="Path 180-4" class="cls-3" d="M165.16,532.41l-15.9,9.18v56.72h54Z"/><path id="Path_181-4" data-name="Path 181-4" class="cls-2" d="M318.29,527.26V444L258,478.85v35.62Z"/><path id="Path_182-4" data-name="Path 182-4" class="cls-2" d="M203,758.47v48.44l35.75,20.64,59.35-16.9-24.23-37.16Z"/><path id="Path_183-4" data-name="Path 183-4" class="cls-1" d="M258,610.29v69l115.72-69Z"/><path id="Path_184-4" data-name="Path 184-4" class="cls-2" d="M389.21,554.53l-27.35-5.8-78.61,49.59h110.5l6.7-4Z"/><path id="Path_185-4" data-name="Path 185-4" class="cls-3" d="M225.19,698.85,246,686.45v-22.2l-96.71,27.53v43.07l115.31,24.43Z"/><path id="Path_186-4" data-name="Path 186-4" class="cls-1" d="M352.2,424.42l-21.93,12.66V529.8l55.26,11.7L352.62,425Z"/><path id="Path_188-4" data-name="Path 188-4" class="cls-1" d="M149.26,747.09v28.82L191,800V755.93Z"/><path id="Path_189-4" data-name="Path 189-4" class="cls-2" d="M246,610.29H149.26v69L246,651.79Z"/><path id="Path_190-4" data-name="Path 190-4" class="cls-3" d="M345.05,545.18,258,526.71v71.6h2.85Z"/><path id="Path_191-4" data-name="Path 191-4" class="cls-1" d="M462.06,722.14V834.71L532.5,794,491,722.14Z"/><path id="Path_192-4" data-name="Path 192-4" class="cls-3" d="M542.87,788.05l15.89-9.18V722.14H504.82Z"/><path id="Path_193-4" data-name="Path 193-4" class="cls-2" d="M389.73,793.2v83.26l60.34-34.84V806Z"/><path id="Path_194-4" data-name="Path 194-4" class="cls-2" d="M505.08,562V513.55L469.33,492.9,410,509.8,434.21,547Z"/><path id="Path_195-4" data-name="Path 195-4" class="cls-1" d="M450.07,710.16v-69l-115.71,69Z"/><path id="Path_196-4" data-name="Path 196-4" class="cls-2" d="M318.82,765.93l27.35,5.8,78.61-49.58H314.28l-6.7,4Z"/><path id="Path_197-4" data-name="Path 197-4" class="cls-3" d="M482.84,621.61,462.05,634v22.2l96.71-27.54V585.61l-115.3-24.43Z"/><path id="Path_198-4" data-name="Path 198-4" class="cls-1" d="M355.83,896l21.92-12.67V790.66L322.49,779,355.4,895.5Z"/><path id="Path_199-4" data-name="Path 199-4" class="cls-1" d="M405.78,501.88l-47.64-75.13,102,59.56Z"/><path id="Path_200-4" data-name="Path 200-4" class="cls-1" d="M558.76,573.36V544.54l-41.71-24.08v44.06Z"/><path id="Path_201-4" data-name="Path 201-4" class="cls-2" d="M462.06,710.16h96.71v-69l-96.71,27.54Z"/><path id="Path_202-4" data-name="Path 202-4" class="cls-3" d="M363,775.29l87.1,18.46V722.14h-2.84Z"/><path id="Path_179-5" data-name="Path 179-5" class="cls-1" d="M668.66,598.31V485.75l-70.44,40.67,41.51,71.89Z"/><path id="Path_180-5" data-name="Path 180-5" class="cls-3" d="M587.85,532.41,572,541.59v56.72H625.9Z"/><path id="Path_181-5" data-name="Path 181-5" class="cls-2" d="M741,527.26V444l-60.34,34.84v35.62Z"/><path id="Path_182-5" data-name="Path 182-5" class="cls-2" d="M625.64,758.47v48.44l35.75,20.64,59.34-16.9-24.22-37.16Z"/><path id="Path_183-5" data-name="Path 183-5" class="cls-1" d="M680.64,610.29v69l115.72-69Z"/><path id="Path_184-5" data-name="Path 184-5" class="cls-2" d="M811.9,554.53l-27.35-5.8-78.61,49.59h110.5l6.7-4Z"/><path id="Path_185-5" data-name="Path 185-5" class="cls-3" d="M647.88,698.85l20.78-12.4v-22.2L572,691.78v43.07l115.31,24.43Z"/><path id="Path_186-5" data-name="Path 186-5" class="cls-1" d="M774.89,424.42,753,437.08V529.8l55.26,11.7L775.31,425Z"/><path id="Path_188-5" data-name="Path 188-5" class="cls-1" d="M572,747.09v28.82L613.66,800V755.93Z"/><path id="Path_189-5" data-name="Path 189-5" class="cls-2" d="M668.66,610.29H572v69l96.71-27.54Z"/><path id="Path_190-5" data-name="Path 190-5" class="cls-3" d="M767.74,545.18l-87.1-18.47v71.6h2.85Z"/><path id="Path_191-5" data-name="Path 191-5" class="cls-1" d="M884.74,722.14V834.71L955.19,794l-41.51-71.9Z"/><path id="Path_192-5" data-name="Path 192-5" class="cls-3" d="M965.56,788.05l15.9-9.18V722.14h-54Z"/><path id="Path_193-5" data-name="Path 193-5" class="cls-2" d="M812.42,793.2v83.26l60.34-34.84V806Z"/><path id="Path_194-5" data-name="Path 194-5" class="cls-2" d="M927.77,562V513.55L892,492.9l-59.35,16.9L856.9,547Z"/><path id="Path_195-5" data-name="Path 195-5" class="cls-1" d="M872.76,710.16v-69l-115.71,69Z"/><path id="Path_196-5" data-name="Path 196-5" class="cls-2" d="M741.51,765.93l27.35,5.8,78.61-49.58H737l-6.7,4Z"/><path id="Path_197-5" data-name="Path 197-5" class="cls-3" d="M905.53,621.61,884.74,634v22.2l96.71-27.54V585.61l-115.3-24.43Z"/><path id="Path_198-5" data-name="Path 198-5" class="cls-1" d="M778.52,896l21.92-12.67V790.66L745.18,779,778.09,895.5Z"/><path id="Path_199-5" data-name="Path 199-5" class="cls-1" d="M828.47,501.88l-47.65-75.13,102,59.56Z"/><path id="Path_200-5" data-name="Path 200-5" class="cls-1" d="M981.45,573.36V544.54l-41.71-24.08v44.06Z"/><path id="Path_201-5" data-name="Path 201-5" class="cls-2" d="M884.74,710.16h96.71v-69l-96.71,27.54Z"/><path id="Path_202-5" data-name="Path 202-5" class="cls-3" d="M785.66,775.29l87.1,18.46V722.14h-2.84Z"/><path id="Path_179-6" data-name="Path 179-6" class="cls-1" d="M1091.35,598.31V485.75l-70.44,40.67,41.5,71.89Z"/><path id="Path_180-6" data-name="Path 180-6" class="cls-3" d="M1010.54,532.41l-15.9,9.18v56.72h53.95Z"/><path id="Path_181-6" data-name="Path 181-6" class="cls-2" d="M1163.67,527.26V444l-60.34,34.84v35.62Z"/><path id="Path_182-6" data-name="Path 182-6" class="cls-2" d="M1048.32,758.47v48.44l35.76,20.64,59.34-16.9-24.22-37.16Z"/><path id="Path_183-6" data-name="Path 183-6" class="cls-1" d="M1103.33,610.29v69l115.72-69Z"/><path id="Path_184-6" data-name="Path 184-6" class="cls-2" d="M1234.59,554.53l-27.35-5.8-78.61,49.59h110.5l6.7-4Z"/><path id="Path_185-6" data-name="Path 185-6" class="cls-3" d="M1070.57,698.85l20.78-12.4v-22.2l-96.71,27.53v43.07l115.3,24.43Z"/><path id="Path_186-6" data-name="Path 186-6" class="cls-1" d="M1197.58,424.42l-21.93,12.66V529.8l55.26,11.7L1198,425Z"/><path id="Path_188-6" data-name="Path 188-6" class="cls-1" d="M994.64,747.09v28.82l41.7,24.08V755.93Z"/><path id="Path_189-6" data-name="Path 189-6" class="cls-2" d="M1091.35,610.29H994.64v69l96.71-27.54Z"/><path id="Path_179-7" data-name="Path 179-7" class="cls-1" d="M1297.74,233.42V120.85l-70.44,40.67,41.51,71.9Z"/><path id="Path_180-7" data-name="Path 180-7" class="cls-3" d="M1216.93,167.51l-15.9,9.18v56.72h54Z"/><path id="Path_182-7" data-name="Path 182-7" class="cls-2" d="M1254.72,393.57V442l35.75,20.64,59.34-16.9-24.22-37.16Z"/><path id="Path_185-7" data-name="Path 185-7" class="cls-3" d="M1277,334l20.78-12.4v-22.2L1201,326.88V370l115.31,24.43Z"/><path id="Path_188-7" data-name="Path 188-7" class="cls-1" d="M1201,382.2V411l41.71,24.08V391Z"/><path id="Path_189-7" data-name="Path 189-7" class="cls-2" d="M1297.74,245.39H1201v69l96.71-27.54Z"/><path id="Path_190-6" data-name="Path 190-6" class="cls-3" d="M1190.43,545.18l-87.1-18.47v71.6h2.85Z"/><path id="Path_193-6" data-name="Path 193-6" class="cls-2" d="M1235.11,793.2v83.26l60.34-34.84V806Z"/><path id="Path_194-6" data-name="Path 194-6" class="cls-2" d="M1350.46,562V513.55l-35.75-20.65-59.35,16.9L1279.59,547Z"/><path id="Path_195-6" data-name="Path 195-6" class="cls-1" d="M1295.45,710.16v-69l-115.71,69Z"/><path id="Path_196-6" data-name="Path 196-6" class="cls-2" d="M1164.19,765.93l27.35,5.8,78.61-49.58h-110.5l-6.7,4Z"/><path id="Path_198-6" data-name="Path 198-6" class="cls-1" d="M1201.21,896l21.92-12.67V790.66L1167.87,779l32.91,116.55Z"/><path id="Path_199-6" data-name="Path 199-6" class="cls-1" d="M1251.16,501.88l-47.65-75.13,102,59.56Z"/><path id="Path_202-6" data-name="Path 202-6" class="cls-3" d="M1208.35,775.29l87.1,18.46V722.14h-2.84Z"/><path id="Path_191-7" data-name="Path 191-7" class="cls-1" d="M36.06,725.44V838l70.44-40.67L65,725.44Z"/><path id="Path_192-7" data-name="Path 192-7" class="cls-3" d="M116.88,791.35l15.9-9.18V725.44H78.83Z"/><path id="Path_193-7" data-name="Path 193-7" class="cls-2" d="M-36.26,796.5v83.26l60.34-34.84V809.29Z"/><path id="Path_194-7" data-name="Path 194-7" class="cls-2" d="M79.09,565.29V516.85L43.33,496.21-16,513.11,8.21,550.27Z"/><path id="Path_195-7" data-name="Path 195-7" class="cls-1" d="M24.08,713.47v-69l-115.71,69Z"/><path id="Path_196-7" data-name="Path 196-7" class="cls-2" d="M-107.18,769.23l27.35,5.8,78.61-49.58h-110.5l-6.7,4Z"/><path id="Path_197-7" data-name="Path 197-7" class="cls-3" d="M56.85,624.91l-20.79,12.4v22.21L132.77,632V588.91L17.47,564.48Z"/><path id="Path_199-7" data-name="Path 199-7" class="cls-1" d="M-20.21,505.18l-47.65-75.13,102,59.56Z"/><path id="Path_200-7" data-name="Path 200-7" class="cls-1" d="M132.77,576.66V547.85L91.06,523.77v44.06Z"/><path id="Path_201-7" data-name="Path 201-7" class="cls-2" d="M36.06,713.47h96.71v-69L36.06,672Z"/><path id="Path_202-7" data-name="Path 202-7" class="cls-3" d="M-63,778.59l87.1,18.46V725.44H21.24Z"/><path id="Path_182-8" data-name="Path 182-8" class="cls-2" d="M203,25.37V73.81L238.7,94.45l59.35-16.9L273.82,40.39Z"/><path id="Path_185-8" data-name="Path 185-8" class="cls-3" d="M225.19-34.26,246-46.66v-22.2L149.26-41.32V1.75L264.57,26.18Z"/><path id="Path_187-7" data-name="Path 187-7" class="cls-1" d="M302.25,85.47l47.65,75.14-102-59.56Z"/><path id="Path_188-8" data-name="Path 188-8" class="cls-1" d="M149.26,14V42.81L191,66.89V22.83Z"/><path id="Path_191-8" data-name="Path 191-8" class="cls-1" d="M462.06-11V101.61L532.5,60.94,491-11Z"/><path id="Path_192-8" data-name="Path 192-8" class="cls-3" d="M542.87,55l15.89-9.18V-11H504.82Z"/><path id="Path_193-8" data-name="Path 193-8" class="cls-2" d="M389.73,60.1v83.26l60.34-34.84V72.88Z"/><path id="Path_196-8" data-name="Path 196-8" class="cls-2" d="M318.82,32.83l27.35,5.8L424.78-11H314.28l-6.7,4Z"/><path id="Path_198-7" data-name="Path 198-7" class="cls-1" d="M355.83,162.93l21.92-12.65V57.56L322.49,45.85,355.4,162.4Z"/><path id="Path_202-8" data-name="Path 202-8" class="cls-3" d="M363,42.19l87.1,18.46V-11h-2.84Z"/><path id="Path_182-9" data-name="Path 182-9" class="cls-2" d="M625.64,25.37V73.81l35.75,20.64,59.34-16.9L696.51,40.39Z"/><path id="Path_185-9" data-name="Path 185-9" class="cls-3" d="M647.88-34.26l20.78-12.4v-22.2L572-41.32V1.75L687.26,26.18Z"/><path id="Path_187-8" data-name="Path 187-8" class="cls-1" d="M724.94,85.47l47.64,75.14-102-59.56Z"/><path id="Path_188-9" data-name="Path 188-9" class="cls-1" d="M572,14V42.81l41.71,24.08V22.83Z"/><path id="Path_191-9" data-name="Path 191-9" class="cls-1" d="M884.74-11V101.61l70.45-40.67L913.68-11Z"/><path id="Path_192-9" data-name="Path 192-9" class="cls-3" d="M965.56,55l15.9-9.18V-11h-54Z"/><path id="Path_193-9" data-name="Path 193-9" class="cls-2" d="M812.42,60.1v83.26l60.34-34.84V72.88Z"/><path id="Path_196-9" data-name="Path 196-9" class="cls-2" d="M741.51,32.83l27.35,5.8L847.47-11H737l-6.7,4Z"/><path id="Path_198-8" data-name="Path 198-8" class="cls-1" d="M778.52,162.93l21.92-12.65V57.56L745.18,45.85,778.09,162.4Z"/><path id="Path_202-9" data-name="Path 202-9" class="cls-3" d="M785.66,42.19l87.1,18.46V-11h-2.84Z"/><path id="Path_182-10" data-name="Path 182-10" class="cls-2" d="M1048.32,25.37V73.81l35.76,20.64,59.34-16.9L1119.2,40.39Z"/><path id="Path_185-10" data-name="Path 185-10" class="cls-3" d="M1070.57-34.26l20.78-12.4v-22.2L994.64-41.32V1.75l115.3,24.43Z"/><path id="Path_187-9" data-name="Path 187-9" class="cls-1" d="M1147.63,85.47l47.64,75.14-102-59.56Z"/><path id="Path_188-10" data-name="Path 188-10" class="cls-1" d="M994.64,14V42.81l41.7,24.08V22.83Z"/><path id="Path_193-10" data-name="Path 193-10" class="cls-2" d="M1235.11,60.1v83.26l60.34-34.84V72.88Z"/><path id="Path_196-10" data-name="Path 196-10" class="cls-2" d="M1164.19,32.83l27.35,5.8L1270.15-11h-110.5L1153-7Z"/><path id="Path_198-9" data-name="Path 198-9" class="cls-1" d="M1201.21,162.93l21.92-12.65V57.56l-55.26-11.71,32.91,116.55Z"/><path id="Path_202-10" data-name="Path 202-10" class="cls-3" d="M1208.35,42.19l87.1,18.46V-11h-2.84Z"/><path id="Path_191-11" data-name="Path 191-11" class="cls-1" d="M36.06-7.66V104.91L106.5,64.24,65-7.66Z"/><path id="Path_192-11" data-name="Path 192-11" class="cls-3" d="M116.88,58.25l15.89-9.18V-7.66H78.83Z"/><path id="Path_193-11" data-name="Path 193-11" class="cls-2" d="M-36.26,63.4v83.26l60.34-34.84V76.19Z"/><path id="Path_196-11" data-name="Path 196-11" class="cls-2" d="M-107.18,36.13l27.35,5.8L-1.22-7.65h-110.5l-6.7,4Z"/><path id="Path_202-11" data-name="Path 202-11" class="cls-3" d="M-63,45.49,24.08,64V-7.66H21.24Z"/></g></g></svg>